# xmcd
#
# Track frame offsets:
#  150
#  18255
#  41254
#  46115
#  69143
#  92593
#  104516
#  116592
#  118679
#  142385
#  163602
#  186650
#  207157
#  227945
#  248441
#  269726
#
# Disc length: 3892 seconds
#
# Revision: 0
# Processed by: cddbd v1.4b42PL0 Copyright (c) Steve Scherf et al.
# Submitted via: AltoMP3_Maker 3.0
#
DISCID=e10f3210
DTITLE=刘若英 - 收获
DYEAR=1900
DGENRE=
TTITLE0=收获
TTITLE1=打了一把钥匙给你
TTITLE2=What It Should I Do?
TTITLE3=I Believe
TTITLE4=说话
TTITLE5=游子
TTITLE6=透明
TTITLE7=Home
TTITLE8=决定
TTITLE9=玫瑰天空
TTITLE10=冰点
TTITLE11=花季来了
TTITLE12=成全
TTITLE13=年华
TTITLE14=很爱很爱你
TTITLE15=好久好久
EXTD=
EXTT0=
EXTT1=
EXTT2=
EXTT3=
EXTT4=
EXTT5=
EXTT6=
EXTT7=
EXTT8=
EXTT9=
EXTT10=
EXTT11=
EXTT12=
EXTT13=
EXTT14=
EXTT15=
PLAYORDER=
